<svg xmlns="http://www.w3.org/2000/svg" width="180.09" height="266.12" viewBox="0 0 180.09 266.12"><defs><linearGradient id="a" x1="11.99" y1="87.99" x2="171.77" y2="180.24" gradientUnits="userSpaceOnUse"><stop offset="0" stop-color="#31c955" stop-opacity=".1"/><stop offset="1" stop-color="#316655"/></linearGradient></defs><title>card_1</title><g fill-rule="evenodd" style="isolation:isolate"><path d="M169.52 175l-157.52 90.05a8 8 0 0 1-12-6.94v-148.73a21 21 0 0 1 10.58-18.23l157.54-90.08a8 8 0 0 1 12 6.94v148.73a21 21 0 0 1-10.6 18.26z" fill="#00bf96"/><path d="M167.05 121.2l-150 85.4a2 2 0 0 1-3-1.74v-29.86a8 8 0 0 1 4-7l150-85.4a2 2 0 0 1 3 1.74v29.91a8 8 0 0 1-4 6.95zm-124.95 82.15l-23.97 13.65a8 8 0 0 0-4 7v22.9a2 2 0 0 0 3 1.74l24-13.65a8 8 0 0 0 4-6.95v-22.95a2 2 0 0 0-3.03-1.74z" fill="#fff"/><path d="M156.63 22.89l-11.07 6.31a24.69 24.69 0 0 0-12.47 21.46 9.68 9.68 0 0 0 14.47 8.4l11.06-6.3a24.71 24.71 0 0 0 12.47-21.46 9.68 9.68 0 0 0-14.46-8.41z" fill="#fff" opacity=".3"/><path d="M85.1 178.35l-23.97 13.65a8 8 0 0 0-4 7v22.9a2 2 0 0 0 3 1.74l24-13.65a8 8 0 0 0 4-6.95v-22.95a2 2 0 0 0-3.03-1.74z" fill="#fff"/><path d="M169.52 175l-157.52 90.05a8 8 0 0 1-12-6.94v-148.73a21 21 0 0 1 10.58-18.23l157.54-90.08a8 8 0 0 1 12 6.94v148.73a21 21 0 0 1-10.6 18.26z" style="mix-blend-mode:multiply" opacity=".3" fill="url(#a)"/></g></svg>